<svg width="150" height="75" viewBox="0 0 150 75" fill="none" xmlns="http://www.w3.org/2000/svg">
<path d="M53.6562 40.0536H48.4944L47.2556 43.7107H45.069L49.9592 30.1798H52.2302L57.1205 43.7107H54.8961L53.6562 40.0536ZM49.0288 38.3662H53.1207L51.1029 32.4305H51.0466L49.0288 38.3662Z" fill="black"/>
<path d="M67.668 38.7792C67.668 41.8461 66.0257 43.8156 63.5481 43.8156C62.2671 43.8826 61.0608 43.2124 60.442 42.0904H60.3954V46.9754H58.3679V33.8467H60.3294V35.4886H60.3673C61.0132 34.372 62.2217 33.7018 63.5113 33.744C66.017 33.744 67.668 35.7222 67.668 38.7792ZM65.5853 38.7792C65.5853 36.7827 64.5533 35.4692 62.9758 35.4692C61.4276 35.4692 60.3856 36.8097 60.3856 38.7792C60.3856 40.7672 61.4276 42.0989 62.9758 42.0989C64.5521 42.0989 65.5853 40.7953 65.5853 38.7792Z" fill="black"/>
<path d="M78.5277 38.7792C78.5277 41.8461 76.8854 43.8156 74.4078 43.8156C73.1268 43.8826 71.9204 43.2124 71.3015 42.0904H71.2551V46.9754H69.2275V33.8467H71.1891V35.4886H71.227C71.8728 34.372 73.0813 33.7018 74.371 33.744C76.8756 33.744 78.5277 35.7222 78.5277 38.7792ZM76.4439 38.7792C76.4439 36.7827 75.4118 35.4692 73.8344 35.4692C72.2861 35.4692 71.2442 36.8097 71.2442 38.7792C71.2442 40.7672 72.2861 42.0989 73.8344 42.0989C75.4118 42.0989 76.4439 40.7953 76.4439 38.7792Z" fill="black"/>
<path d="M80.1607 30.1798H82.187V43.7118H80.1607V30.1798Z" fill="black"/>
<path d="M92.7374 40.8147C92.2764 42.7431 90.46 44.0328 88.4855 43.8338C85.614 43.8338 83.8299 41.9107 83.8299 38.8267C83.8299 35.7317 85.6226 33.7254 88.401 33.7254C91.1318 33.7254 92.8498 35.601 92.8498 38.592V39.2861H85.8769V39.4082C85.8119 40.1422 86.0651 40.8698 86.5736 41.4049C87.0821 41.94 87.7952 42.2308 88.533 42.2026C89.5165 42.2945 90.4437 41.7302 90.8137 40.8147H92.7374ZM85.8856 37.87H90.8224C90.8591 37.2095 90.619 36.5641 90.1591 36.0895C89.6993 35.6139 89.0621 35.3523 88.401 35.3664C87.7346 35.3621 87.093 35.6247 86.6213 36.0949C86.1485 36.5641 85.8845 37.203 85.8856 37.87Z" fill="black"/>
<path d="M110.335 43.7118V33.7525H110.269L106.186 43.6091H104.628L100.536 33.7525H100.471V43.7118H98.5564V30.1798H100.986L105.37 40.86H105.446L109.819 30.1798H112.26V43.7118H110.335Z" fill="black"/>
<path d="M123.054 43.7116H121.112V42.0145H121.064C120.53 43.2036 119.306 43.9278 118.005 43.8241C117.036 43.8804 116.093 43.5074 115.425 42.8036C114.758 42.0999 114.434 41.1389 114.542 40.1768V33.8465H116.57V39.7834C116.57 41.2837 117.283 42.0805 118.681 42.0805C119.346 42.1021 119.989 41.8329 120.44 41.3432C120.891 40.8536 121.105 40.1909 121.027 39.5304V33.8475H123.055L123.054 43.7116Z" fill="black"/>
<path d="M128.818 33.734C131.004 33.734 132.572 34.9447 132.619 36.6884H130.715C130.629 35.816 129.89 35.2821 128.763 35.2821C127.663 35.2821 126.932 35.7879 126.932 36.5577C126.932 37.1479 127.42 37.5414 128.444 37.7954L130.105 38.1791C132.095 38.658 132.845 39.3899 132.845 40.8341C132.845 42.6155 131.156 43.8349 128.744 43.8349C126.417 43.8349 124.848 42.6437 124.7 40.8426H126.707C126.85 41.7907 127.608 42.2966 128.838 42.2966C130.048 42.2966 130.81 41.7993 130.81 41.0114C130.81 40.4027 130.434 40.0741 129.403 39.8115L127.638 39.3801C125.855 38.9488 124.954 38.0397 124.954 36.6712C124.952 34.9253 126.518 33.734 128.818 33.734Z" fill="black"/>
<path d="M134.423 31.249C134.414 30.7701 134.695 30.3333 135.136 30.1441C135.576 29.955 136.086 30.0501 136.427 30.3863C136.769 30.7225 136.873 31.2306 136.69 31.6738C136.507 32.1159 136.074 32.4045 135.597 32.4024C134.953 32.4067 134.43 31.891 134.423 31.249ZM134.583 33.8466H136.61V43.7118H134.583V33.8466Z" fill="black"/>
<path d="M145.342 37.2409C145.159 36.1221 144.146 35.3308 143.015 35.4217C141.458 35.4217 140.425 36.7253 140.425 38.7792C140.425 40.8795 141.466 42.1465 143.035 42.1465C144.152 42.2578 145.165 41.4807 145.343 40.3737H147.294C147.043 42.4956 145.144 44.0296 143.015 43.835C140.2 43.835 138.359 41.9119 138.359 38.7803C138.359 35.7146 140.198 33.7266 142.995 33.7266C145.139 33.545 147.038 35.1049 147.274 37.242L145.342 37.2409Z" fill="black"/>
<path fill-rule="evenodd" clip-rule="evenodd" d="M40.984 30.0194C40.984 29.5413 40.984 29.0639 40.984 28.5872C40.984 28.1877 40.984 27.7882 40.966 27.3887C40.9547 26.5099 40.8772 25.6331 40.7341 24.7659C40.5864 23.8974 40.3094 23.0557 39.9124 22.2691C39.1065 20.6877 37.8202 19.4018 36.2379 18.5957C35.4516 18.1999 34.6107 17.9232 33.7429 17.7747C32.8743 17.6318 31.9962 17.5544 31.1159 17.543C30.7161 17.531 30.3163 17.527 29.9164 17.525H12.0736C11.6737 17.525 11.2739 17.525 10.874 17.543C9.99183 17.554 9.11168 17.6315 8.2411 17.7747C7.37289 17.9227 6.53185 18.2001 5.7461 18.5977C4.16544 19.4025 2.87999 20.6862 2.07357 22.2651C1.6766 23.0511 1.39964 23.892 1.2519 24.7599C1.10889 25.6278 1.03137 26.5052 1.01999 27.3847C1.008 27.7842 1.004 28.1837 1.002 28.5832C1.00067 29.0666 1 29.5453 1 30.0194V44.9746C1 45.4501 1 45.9275 1 46.4069C1 46.8064 1 47.2059 1.01799 47.6054C1.02928 48.4848 1.1068 49.3622 1.2499 50.2301C1.39765 51.098 1.67461 51.939 2.07157 52.7249C2.87799 54.3038 4.16344 55.5875 5.7441 56.3924C6.53034 56.7887 7.3712 57.0661 8.2391 57.2153C9.10763 57.3586 9.98583 57.4353 10.8661 57.445C11.2659 57.457 11.6657 57.461 12.0656 57.463C12.5434 57.463 13.0212 57.463 13.499 57.463H29.8924C30.2923 57.463 30.6921 57.463 31.092 57.445C31.9722 57.4355 32.8504 57.3587 33.7189 57.2153C34.5876 57.067 35.4293 56.7896 36.2159 56.3924C37.7954 55.5865 39.0799 54.3031 39.8864 52.7249C40.284 51.939 40.5617 51.098 40.7101 50.2301C40.8535 49.3623 40.9303 48.4848 40.94 47.6054C40.952 47.2059 40.956 46.8064 40.958 46.4069C40.958 45.9295 40.958 45.452 40.958 44.9746V30.0194H40.984Z" fill="url(#paint0_linear_105_2)"/>
<path fill-rule="evenodd" clip-rule="evenodd" d="M29.2662 23.6273C29.1703 23.6273 28.3106 23.7871 28.2066 23.8091L16.3234 26.206C16.0523 26.2527 15.7973 26.3668 15.5817 26.5376C15.3579 26.7366 15.2155 27.0112 15.1819 27.3086C15.1637 27.4411 15.155 27.5745 15.1559 27.7081V42.5695C15.188 42.9144 15.0942 43.2591 14.892 43.5403C14.6681 43.7908 14.3588 43.949 14.0243 43.9838L13.2486 44.1396C12.5012 44.2628 11.7655 44.4493 11.0496 44.6969C10.5593 44.8724 10.1156 45.1572 9.75207 45.5298C8.56633 46.8065 8.63693 48.8007 9.91001 49.9902C10.3136 50.3651 10.8132 50.6209 11.3534 50.7293C11.9532 50.8492 12.5749 50.8072 13.4965 50.6215C13.9853 50.5305 14.455 50.3576 14.886 50.1101C15.3194 49.8554 15.6925 49.5099 15.9795 49.0974C16.2655 48.6854 16.4636 48.2189 16.5613 47.7271C16.6587 47.2433 16.7029 46.7503 16.6932 46.2569V33.3711C16.6932 32.6799 16.8932 32.4981 17.4469 32.3723C17.4469 32.3723 27.325 30.3748 27.7868 30.2929C28.4286 30.1691 28.7324 30.3528 28.7324 31.026V39.815C28.7324 40.1625 28.7324 40.5161 28.4905 40.8137C28.2672 41.0635 27.9584 41.221 27.6249 41.2552L26.8472 41.413C26.0998 41.536 25.3643 41.7218 24.6481 41.9683C24.1585 42.145 23.715 42.4297 23.3506 42.8012C22.7668 43.4074 22.454 44.2242 22.4838 45.0649C22.5136 45.9056 22.8834 46.6983 23.5085 47.2617C23.9133 47.6337 24.4126 47.8872 24.9519 47.9947C25.5517 48.1146 26.1755 48.0707 27.0971 47.8869C27.5848 47.7978 28.0539 47.627 28.4845 47.3815C28.9179 47.1275 29.2909 46.7826 29.5781 46.3708C29.8639 45.9586 30.0618 45.4922 30.1599 45.0005C30.2506 44.5153 30.2882 44.0217 30.2718 43.5283V24.676C30.2698 23.9928 29.91 23.5714 29.2662 23.6273Z" fill="white"/>
<defs>
<linearGradient id="paint0_linear_105_2" x1="20.992" y1="57.3172" x2="20.992" y2="18.3839" gradientUnits="userSpaceOnUse">
<stop stop-color="#FA233B"/>
<stop offset="1" stop-color="#FB5C74"/>
</linearGradient>
</defs>
</svg>
