<svg width="150" height="75" viewBox="0 0 150 75" fill="none" xmlns="http://www.w3.org/2000/svg">
<path fill-rule="evenodd" clip-rule="evenodd" d="M84.3811 27C84.5622 27.2764 84.5175 27.5892 84.5175 27.8902C84.5198 33.2609 84.5198 38.6315 84.5163 44.001C84.5163 44.275 84.5692 44.562 84.3752 44.8948C83.5673 44.9935 82.7159 44.9453 81.8645 44.9218C81.5834 44.482 81.8327 43.9928 81.6563 43.5624C79.2197 45.9214 75.5366 45.9284 73.3528 43.5953C72.5861 42.7757 72.1204 41.7878 71.8711 40.7095C71.5183 39.1748 71.5042 37.6214 71.8664 36.0914C73.1129 30.8313 78.9728 30.5526 81.5281 33.4337C81.6493 31.2358 81.4682 29.1132 81.6281 27C82.5465 27 83.465 27 84.3811 27ZM81.6093 38.4034C81.6669 37.5085 81.5058 36.6347 81.0966 35.8292C80.4956 34.6415 79.5325 34.017 78.1649 34.0111C76.8101 34.0053 75.7906 34.5486 75.2026 35.7669C74.4018 37.4273 74.3477 39.1466 75.0262 40.8635C75.5554 42.1994 76.582 42.9368 78.0132 42.9662C79.4432 42.9979 80.4827 42.3029 81.1001 41.0035C81.4893 40.185 81.6681 39.3242 81.6093 38.4034Z" fill="#333333"/>
<path fill-rule="evenodd" clip-rule="evenodd" d="M135.125 49.7762C135.104 49.5222 135.065 49.2694 135.065 49.0165C135.062 43.6165 135.062 38.2152 135.065 32.8152C135.065 32.5906 135.084 32.3636 135.1 32.0355C135.991 31.9414 136.862 31.9744 137.696 32.0132C137.989 32.4353 137.756 32.8775 137.928 33.2491C137.983 33.2456 138.05 33.262 138.075 33.2362C140.835 30.5291 145.388 31.2335 147.079 34.7155C148.342 37.3168 148.308 40.0168 146.964 42.584C145.35 45.6674 140.997 46.3083 138.451 43.9199C138.36 43.8352 138.268 43.7517 138.165 43.6565C137.941 43.8199 138.022 44.0386 138.021 44.2209C138.012 45.7744 138.018 47.3278 138.014 48.8836C138.014 49.1847 138.058 49.4975 137.878 49.775C136.96 49.7762 136.043 49.7762 135.125 49.7762ZM144.934 38.608C144.958 37.4191 144.707 36.3831 144.105 35.4223C142.85 33.4173 139.461 33.5043 138.45 35.8033C137.641 37.6425 137.635 39.5123 138.596 41.3104C139.2 42.4381 140.229 42.9791 141.486 42.9685C142.812 42.9568 143.819 42.3464 144.41 41.1246C144.806 40.3061 144.947 39.4347 144.934 38.608Z" fill="#333333"/>
<path fill-rule="evenodd" clip-rule="evenodd" d="M124.513 44.8948C123.631 44.9935 122.725 44.9406 121.857 44.93C121.571 44.6243 121.668 44.3044 121.666 44.0116C121.658 41.6691 121.662 39.3254 121.662 36.9828C121.662 36.7782 121.664 36.5748 121.661 36.3713C121.638 35.1542 121.225 34.4051 120.425 34.124C119.343 33.7418 118.101 34.1134 117.404 35.0272C116.868 35.7281 116.698 36.5395 116.697 37.3991C116.692 39.5876 116.698 41.7808 116.692 43.9716C116.691 44.2715 116.746 44.5819 116.616 44.8712C116.403 45.0653 116.141 45.0465 115.889 45.0476C114.31 45.0606 112.737 45.1864 111.164 45.3252C110.011 45.4286 109.041 45.1441 108.525 43.9152C107.435 44.7336 106.248 45.1394 104.966 45.2958C103.877 45.4286 102.83 45.3016 101.83 44.8595C100.382 44.2186 99.6064 42.9368 99.6534 41.3186C99.7004 39.6864 100.473 38.5786 102.002 37.9965C103.325 37.4897 104.737 37.4344 106.118 37.2286C106.622 37.1533 107.124 37.0863 107.608 36.9158C108.111 36.7417 108.423 36.396 108.486 35.8645C108.554 35.2941 108.371 34.8084 107.889 34.4662C106.976 33.8136 104.772 33.863 103.879 34.5356C103.401 34.8955 103.22 35.4211 103.023 35.9985C102.084 36.0538 101.159 36.0562 100.24 35.9985C100.106 34.4968 100.963 33.0116 102.456 32.346C104.645 31.3699 106.906 31.3064 109.131 32.226C110.588 32.8305 111.313 33.9806 111.299 35.5893C111.281 37.6531 111.292 39.7158 111.298 41.7808C111.298 42.1053 111.232 42.4476 111.507 42.8345C112.161 43.1132 112.895 43.0038 113.726 42.8838C113.726 39.256 113.726 35.6775 113.726 32.0437C114.691 31.9508 115.563 31.9649 116.44 32.0261C116.632 32.5412 116.463 33.0327 116.59 33.5102C119.48 30.9125 122.181 30.9348 124.17 33.5466C124.29 33.5584 124.341 33.4631 124.402 33.3902C125.849 31.6674 127.717 31.3229 129.796 31.798C131.442 32.1743 132.474 33.3526 132.516 35.1448C132.594 38.3258 132.535 41.5115 132.53 44.6948C132.53 44.7395 132.492 44.7854 132.447 44.8877C131.572 45.0135 130.667 44.9242 129.805 44.9371C129.518 44.6243 129.614 44.3044 129.612 44.0116C129.604 41.7185 129.608 39.4265 129.608 37.1333C129.609 36.5465 129.595 35.9621 129.441 35.3906C129.213 34.5474 128.69 34.1111 127.81 34.0347C125.741 33.8512 124.67 34.8861 124.645 37.1498C124.62 39.4171 124.642 41.6844 124.636 43.9504C124.637 44.2456 124.705 44.5584 124.513 44.8948ZM108.317 38.6221C107.196 39.0796 106.075 39.1054 104.978 39.2783C104.453 39.3606 103.932 39.4841 103.468 39.7722C102.84 40.1615 102.594 40.7553 102.642 41.4586C102.686 42.1242 103.148 42.4887 103.729 42.7016C104.886 43.1237 106.024 43.0508 107.114 42.4781C107.726 42.1559 108.162 41.6691 108.28 40.9658C108.407 40.2144 108.354 39.4618 108.317 38.6221Z" fill="#333333"/>
<path fill-rule="evenodd" clip-rule="evenodd" d="M47.7249 35.9738C46.7382 35.9738 45.8104 35.9738 44.8367 35.9738C44.899 34.2616 45.6505 33.0139 47.1392 32.3424C49.323 31.357 51.5891 31.3017 53.8093 32.2284C55.2617 32.8363 55.9849 33.9947 55.9708 35.6011C55.952 37.6649 55.9637 39.7264 55.9696 41.789C55.9696 42.1136 55.9014 42.457 56.1883 42.8415C56.8398 43.1002 57.5724 43.012 58.4015 42.8756C58.4015 39.2454 58.4015 35.6669 58.4015 32.0273C59.3682 31.9497 60.2395 31.9779 61.0898 32.0073C61.3156 32.5494 61.1239 33.0468 61.2615 33.5302C61.5131 33.5361 61.5907 33.3161 61.7107 33.1809C63.3947 31.2711 66.1464 31.2582 67.9433 32.2601C69.2498 32.988 69.8131 34.2228 69.8425 35.6328C69.9049 38.6351 69.8578 41.6397 69.8531 44.6431C69.8531 44.6925 69.8237 44.7384 69.7673 44.9053C68.8888 44.9924 67.9657 44.93 67.079 44.9312C66.812 44.6137 66.9002 44.2938 66.8991 44.001C66.8908 41.7855 66.8955 39.57 66.8955 37.3544C66.8955 37.178 66.8979 36.9981 66.8944 36.8205C66.8579 35.0813 66.197 34.1511 64.9105 34.0323C63.1583 33.8688 61.8459 34.7649 61.4908 36.3748C61.3967 36.7958 61.3602 37.2274 61.3614 37.6637C61.3697 39.8016 61.3685 41.9407 61.3626 44.081C61.3614 44.3538 61.4226 44.6407 61.2662 44.9006C60.9922 45.09 60.6794 45.0429 60.3783 45.0476C58.9013 45.0735 57.4302 45.1805 55.9602 45.3146C54.7936 45.4216 53.7599 45.2334 53.246 44.0104C52.9274 43.9799 52.771 44.2233 52.5581 44.3409C50.7883 45.3263 48.9267 45.6497 46.9699 45.0382C45.233 44.4938 44.2969 43.1508 44.3251 41.3657C44.3545 39.5852 45.2812 38.3752 47.0557 37.853C48.2811 37.492 49.5547 37.3979 50.8141 37.2227C51.2928 37.1533 51.7702 37.0887 52.2312 36.9323C52.7604 36.7523 53.1073 36.4066 53.1614 35.8386C53.2178 35.233 53.025 34.6814 52.4687 34.4169C51.2057 33.8148 49.9075 33.8006 48.6574 34.4651C48.0835 34.7696 47.8566 35.3635 47.7249 35.9738ZM52.9697 38.6527C51.8455 39.0631 50.7036 39.1207 49.5805 39.2901C49.1055 39.3618 48.6362 39.4829 48.2094 39.7287C47.5449 40.1133 47.2486 40.7154 47.3015 41.448C47.3509 42.1359 47.8378 42.5075 48.4551 42.7227C49.5947 43.1155 50.7048 43.0355 51.7714 42.4852C52.4464 42.1383 52.8791 41.5856 52.972 40.8247C53.0579 40.1238 53.0497 39.4159 52.9697 38.6527Z" fill="#333333"/>
<path fill-rule="evenodd" clip-rule="evenodd" d="M95.7621 40.038C96.7358 39.9992 97.6413 39.9804 98.6526 40.0498C98.3328 42.0642 97.566 43.6823 95.7692 44.6302C91.4228 46.9233 86.5742 44.0633 86.3579 39.0949C86.3167 38.147 86.4084 37.2133 86.6424 36.2937C87.515 32.8669 90.2209 31.4134 93.4008 31.6369C94.1887 31.6921 94.9613 31.8509 95.6939 32.1707C97.2262 32.8387 98.1881 33.9747 98.555 35.6081C98.6044 35.8292 98.6644 36.0526 98.5233 36.3454C97.6507 36.4301 96.7429 36.3784 95.9279 36.3737C95.6692 36.2631 95.6586 36.095 95.6151 35.9562C95.2753 34.8437 94.5332 34.1852 93.3808 34.0464C92.0237 33.883 90.7748 34.1675 90.0822 35.4458C89.0167 37.4073 89.0109 39.4535 90.0375 41.4421C90.6184 42.5675 91.6591 43.0391 92.9045 42.952C94.2463 42.858 95.0871 42.0854 95.514 40.8318C95.5939 40.5919 95.6645 40.3484 95.7621 40.038Z" fill="#333333"/>
<path fill-rule="evenodd" clip-rule="evenodd" d="M42.5553 35.0013C41.023 31.2782 35.9557 30.5397 33.6109 33.1774C33.5603 33.2338 33.498 33.2797 33.331 33.1985C33.331 31.1606 33.331 29.0815 33.331 27C32.3632 27 31.3953 27 30.4275 27V44.9112C31.3894 44.9524 32.2526 44.9971 33.077 44.8889C33.2945 44.4267 33.0946 43.981 33.2639 43.5565C34.4564 44.8313 35.4171 45.2499 37.2964 45.344C39.6283 45.4604 41.5687 44.3279 42.4988 42.1947C43.5325 39.8204 43.5431 37.4038 42.5553 35.0013ZM39.7553 41.0517C39.2214 42.2923 38.2101 42.9332 36.8801 42.9662C35.5935 42.9979 34.5316 42.4664 33.9201 41.3033C32.9311 39.4218 32.9453 37.4897 33.8884 35.5987C34.4246 34.5262 35.4266 34.0241 36.6672 34.0194C38.0313 33.9759 38.9792 34.5803 39.5813 35.6951C40.522 37.4391 40.5291 39.2477 39.7553 41.0517Z" fill="#333333"/>
<path d="M22.1863 44.89H1L9.24121 27.06H30.4275L22.1863 44.89Z" fill="#619AA9"/>
</svg>
