<svg width="2000" height="2000" viewBox="0 0 2000 2000" fill="none" xmlns="http://www.w3.org/2000/svg">
<rect width="2000" height="2000" fill="black"/>
<path d="M1114.43 1275.25V1233.25L1401.68 912.25H1114.43V870.25H1458.3V912.25L1171.05 1233.25H1458.3V1275.25H1114.43Z" fill="white"/>
<path d="M771.51 1275.25V1233.25L1058.76 912.25H771.51V870.25H1115.38V912.25L828.135 1233.25H1115.38V1275.25H771.51Z" fill="white"/>
<path d="M614 835V828.25C614 811.25 616.125 796.25 620.375 783.25C624.875 770.25 631.5 759.375 640.25 750.625C649 741.875 659.875 735.25 672.875 730.75C685.875 726.25 700.75 724 717.5 724H725H772.25V761.5H723.875C711.875 761.5 701.625 762.875 693.125 765.625C684.625 768.125 677.75 772.25 672.5 778C667.25 783.5 663.375 790.75 660.875 799.75C658.375 808.5 657.125 819.25 657.125 832V1275.25H614V835ZM542 912.25V870.25H772.25V912.25H542Z" fill="white"/>
</svg>
