<svg width="2000" height="2000" viewBox="0 0 2000 2000" fill="none" xmlns="http://www.w3.org/2000/svg">
<rect width="2000" height="2000" fill="white"/>
<path d="M1230.86 1556.69V1471.79L1811.53 822.885H1230.86V737.982H1926V822.885L1345.32 1471.79H1926V1556.69H1230.86Z" fill="black"/>
<path d="M537.653 1556.69V1471.79L1118.33 822.885H537.653V737.982H1232.8V822.885L652.12 1471.79H1232.8V1556.69H537.653Z" fill="black"/>
<path d="M219.247 666.724V653.079C219.247 618.713 223.543 588.391 232.134 562.111C241.231 535.832 254.623 513.848 272.311 496.16C290 478.472 311.983 465.08 338.263 455.983C364.542 446.886 394.612 442.338 428.472 442.338H443.633H539.149V518.144H441.359C417.101 518.144 396.381 520.923 379.198 526.482C362.015 531.536 348.118 539.875 337.505 551.499C326.892 562.617 319.059 577.273 314.005 595.466C308.951 613.154 306.424 634.885 306.424 660.659V1556.69H219.247V666.724ZM73.6992 822.885V737.982H539.149V822.885H73.6992Z" fill="black"/>
</svg>
