<svg width="1853" height="1115" viewBox="0 0 1853 1115" fill="none" xmlns="http://www.w3.org/2000/svg">
<path d="M1157.16 1114.35V1029.45L1737.83 380.547H1157.16V295.644H1852.3V380.547L1271.63 1029.45H1852.3V1114.35H1157.16Z" fill="white"/>
<path d="M463.954 1114.35V1029.45L1044.63 380.547H463.954V295.644H1159.1V380.547L578.421 1029.45H1159.1V1114.35H463.954Z" fill="white"/>
<path d="M145.548 224.386V210.741C145.548 176.376 149.844 146.053 158.435 119.774C167.532 93.4943 180.924 71.5105 198.612 53.8224C216.3 36.1343 238.284 22.7419 264.564 13.6451C290.843 4.54837 320.913 0 354.773 0H369.934H465.45V75.8061H367.66C343.402 75.8061 322.682 78.5857 305.499 84.1448C288.316 89.1986 274.418 97.5373 263.806 109.161C253.193 120.279 245.359 134.935 240.306 153.129C235.252 170.817 232.725 192.548 232.725 218.322V1114.35H145.548V224.386ZM0 380.547V295.644H465.45V380.547H0Z" fill="white"/>
</svg>
