<svg width="1366" height="844" viewBox="0 0 1366 844" fill="none" xmlns="http://www.w3.org/2000/svg">
<path d="M846.375 816V755.962L1257.05 297.099H846.375V237.061H1338V297.099L927.33 755.962H1338V816H846.375Z" fill="white" stroke="white" stroke-width="56"/>
<path d="M356.121 816V755.962L766.792 297.099H356.121V237.061H847.746V297.099L437.076 755.962H847.746V816H356.121Z" fill="white" stroke="white" stroke-width="56"/>
<path d="M130.936 186.672V177.023C130.936 152.722 133.974 131.28 140.05 112.697C146.483 94.1134 155.955 78.5678 168.464 66.0599C180.974 53.5519 196.521 44.0816 215.107 37.649C233.693 31.2163 254.959 28 278.906 28H289.628H357.18V81.6054H288.02C270.864 81.6054 256.21 83.5709 244.058 87.502C231.905 91.0757 222.077 96.9723 214.571 105.192C207.065 113.054 201.525 123.418 197.951 136.283C194.377 148.791 192.59 164.158 192.59 182.384V816H130.936V186.672ZM28 297.099V237.061H357.18V297.099H28Z" fill="white" stroke="white" stroke-width="56"/>
</svg>
