<svg width="1366" height="844" viewBox="0 0 1366 844" fill="none" xmlns="http://www.w3.org/2000/svg">
<path d="M385.18 109.605H288.02C272.853 109.605 261.274 111.361 252.676 114.143L252.318 114.259L251.957 114.364C244.021 116.698 238.847 120.13 235.247 124.072L235.038 124.302L234.823 124.526C231.147 128.377 227.549 134.352 224.93 143.778L224.901 143.877L224.873 143.977C222.236 153.206 220.59 165.805 220.59 182.384V209.062H1366V307.8L1358.86 315.772L989.966 727.962H1366V844H328.121V745.263L335.257 737.289L704.155 325.1H220.59V844H102.936V325.1H0V209.062H102.936V177.023C102.936 150.454 106.25 125.974 113.437 103.995L113.512 103.765L113.591 103.536C121.254 81.3998 132.84 62.0851 148.667 46.2598L149.411 45.5205C165.098 30.0729 184.157 18.7319 205.949 11.1895L208.027 10.4844C229.572 3.32492 253.322 2.77607e-05 278.905 0H385.18V109.605ZM499.712 727.962H833.858L1194.41 325.1H860.263L499.712 727.962Z" fill="white"/>
</svg>
