<svg width="150" height="75" viewBox="0 0 150 75" fill="none" xmlns="http://www.w3.org/2000/svg">
<mask id="mask0_105_2" style="mask-type:luminance" maskUnits="userSpaceOnUse" x="1" y="30" width="147" height="17">
<path d="M71.6252 34.0502V40.0772C71.6252 41.793 70.7762 42.8514 69.4155 42.8514C68.0502 42.8514 67.2211 41.7624 67.2211 40.0455V34.0502H65.0725V40.0772C65.0725 43.2031 66.8248 44.9506 69.4155 44.9506C72.1427 44.9506 73.7691 43.1572 73.7691 40.0455V34.0502H71.6252ZM83.0302 34.0502V38.5907C83.0302 39.187 83.0596 40.5347 83.0596 40.9345C82.9208 40.6582 82.5704 40.1207 82.3105 39.7256L78.5049 34.0514H76.4516V44.7836H78.5684V40.0619C78.5684 39.4622 78.5367 38.1145 78.5367 37.7146C78.6766 37.9898 79.0282 38.5284 79.2869 38.9283L83.2266 44.7836H85.1435V34.0514H83.0302V34.0502ZM90.051 36.1341H91.1858C93.4532 36.1341 94.3916 37.2219 94.3916 39.4187C94.3916 41.3791 93.3638 42.6997 91.1094 42.6997H90.0521V36.1341H90.051ZM87.9047 34.0502V44.7824H91.1082C93.8671 44.7824 96.5955 43.1901 96.5955 39.4175C96.5955 35.4908 94.3305 34.0502 91.2611 34.0502H87.9047ZM109.052 34.0502V44.7824H115.502V42.6644H111.199V34.0502H109.052ZM134.478 34.0502V40.0772C134.478 41.793 133.636 42.8514 132.273 42.8514C130.906 42.8514 130.079 41.7624 130.079 40.0455V34.0502H127.933V40.0772C127.933 43.2031 129.679 44.9506 132.273 44.9506C135.004 44.9506 136.627 43.1572 136.627 40.0455V34.0502H134.478ZM141.453 36.1341H142.593C144.858 36.1341 145.794 37.2219 145.794 39.4187C145.794 41.3791 144.765 42.6997 142.515 42.6997H141.453V36.1341ZM139.307 34.0502V44.7824H142.514C145.273 44.7824 148 43.1901 148 39.4175C148 35.4908 145.731 34.0502 142.664 34.0502H139.307ZM44.0372 37.0243C44.0372 39.1399 45.4214 39.7679 47.3959 40.2289C49.4198 40.6899 49.7891 40.9957 49.7891 41.686C49.7891 42.4998 49.1905 42.8514 47.9181 42.8514C46.8891 42.8514 45.9236 42.4986 45.1721 41.6225L43.6233 43.0008C44.4371 44.2027 46.0024 44.9506 47.7946 44.9506C50.7252 44.9506 52.0106 43.5711 52.0106 41.5296C52.0106 39.2023 50.1254 38.6213 48.4214 38.2215C46.7221 37.8193 46.2611 37.6064 46.2611 36.9326C46.2611 36.4598 46.6445 35.9635 47.7946 35.9635C48.7777 35.9635 49.5445 36.3669 50.2336 37.069L51.7813 35.5696C50.7687 34.5135 49.5445 33.8855 47.871 33.8855C45.7566 33.8844 44.0372 35.0768 44.0372 37.0243ZM55.8456 39.4175C55.8456 37.4994 56.5664 36.0129 58.2975 36.0129C60.031 36.0129 60.7519 37.4994 60.7519 39.4175C60.7519 41.332 60.0321 42.8185 58.2975 42.8185C56.5664 42.8197 55.8456 41.332 55.8456 39.4175ZM53.6394 39.4175C53.6394 42.6833 55.3716 44.9494 58.2987 44.9494C61.2258 44.9494 62.9604 42.6833 62.9604 39.4175C62.9604 36.1482 61.227 33.8832 58.2987 33.8832C55.3716 33.8844 53.6394 36.1494 53.6394 39.4175ZM98.4971 39.4175C98.4971 42.8032 100.383 44.9494 103.188 44.9494C105.139 44.9494 106.427 44.0474 107.163 42.528L105.353 41.4555C104.786 42.4034 104.217 42.8185 103.252 42.8185C101.642 42.8185 100.704 41.3461 100.704 39.4175C100.704 37.423 101.626 36.0129 103.236 36.0129C104.198 36.0129 104.815 36.4387 105.2 37.176L107.192 36.2575C106.516 34.864 105.289 33.8832 103.265 33.8832C100.461 33.8844 98.4971 36.1494 98.4971 39.4175ZM118.703 39.4175C118.703 37.4994 119.423 36.0129 121.156 36.0129C122.886 36.0129 123.608 37.4994 123.608 39.4175C123.608 41.332 122.886 42.8185 121.156 42.8185C119.423 42.8197 118.703 41.332 118.703 39.4175ZM116.497 39.4175C116.497 42.6833 118.228 44.9494 121.156 44.9494C124.085 44.9494 125.816 42.6833 125.816 39.4175C125.816 36.1482 124.085 33.8832 121.156 33.8832C118.228 33.8844 116.497 36.1494 116.497 39.4175ZM1.28107 40.1278L1 42.2599L1.28107 44.3555C1.29165 44.4449 1.35515 44.5072 1.43512 44.5072C1.51274 44.5072 1.57624 44.4449 1.58918 44.3567L1.92199 42.2599L1.58918 40.1266C1.57624 40.0396 1.51274 39.9784 1.43512 39.9784C1.35515 39.9773 1.29165 40.0384 1.28107 40.1278ZM2.69463 38.8118L2.31713 42.2599L2.69463 45.6339C2.70639 45.7221 2.77342 45.7891 2.85457 45.7891C2.93454 45.7891 3.00039 45.7256 3.0145 45.6339L3.44257 42.2599L3.0145 38.8118C3.00039 38.7201 2.93454 38.6566 2.85457 38.6566C2.77342 38.6554 2.70639 38.7201 2.69463 38.8118ZM7.15994 38.3614L6.84124 42.2611L7.15994 46.363C7.16935 46.5065 7.27871 46.617 7.41748 46.617C7.5539 46.617 7.66562 46.5065 7.67621 46.363L8.03959 42.2599L7.67621 38.3579C7.66562 38.2156 7.55625 38.1062 7.41748 38.1062C7.27871 38.1074 7.16935 38.2156 7.15994 38.3614ZM4.17052 38.1674L3.81184 42.2599L4.17052 46.2042C4.18111 46.3124 4.26225 46.3924 4.36339 46.3924C4.46335 46.3924 4.54332 46.3124 4.55508 46.2042L4.96315 42.2599L4.55625 38.1674C4.54332 38.0592 4.46335 37.9792 4.36339 37.9792C4.26225 37.9792 4.18111 38.0592 4.17052 38.1674ZM5.65935 38.0568L5.31948 42.2611L5.65935 46.3289C5.66876 46.4547 5.76519 46.5488 5.88397 46.5488C6.00157 46.5488 6.098 46.4547 6.10976 46.3289L6.49432 42.2611L6.10976 38.0557C6.098 37.9298 6.00157 37.8346 5.88397 37.8346C5.76519 37.8346 5.66876 37.9298 5.65935 38.0568ZM8.67346 35.9177L8.37358 42.2634L8.67346 46.3642C8.68169 46.5241 8.80988 46.6511 8.96394 46.6511C9.11799 46.6511 9.24618 46.5241 9.25559 46.3642V46.3653L9.59545 42.2634L9.25559 35.9177C9.24618 35.7566 9.11799 35.6296 8.96394 35.6296C8.8087 35.6296 8.68169 35.7566 8.67346 35.9177ZM10.1987 34.4665L9.91768 42.2634L10.1987 46.3395C10.207 46.517 10.3481 46.6582 10.5221 46.6582C10.695 46.6582 10.8361 46.5171 10.8456 46.3383L11.1631 42.2634L10.8456 34.4665C10.8361 34.2866 10.695 34.1454 10.5221 34.1454C10.3481 34.1454 10.207 34.2866 10.1987 34.4665ZM16.4245 34.0678L16.2211 42.2658L16.4245 46.2113C16.4292 46.463 16.6292 46.6617 16.8797 46.6617C17.129 46.6617 17.3277 46.463 17.3336 46.2089V46.2125L17.5617 42.2681L17.3336 34.0678C17.3277 33.8138 17.129 33.6151 16.8797 33.6151C16.6292 33.6139 16.4292 33.8138 16.4245 34.0678ZM11.737 33.8173L11.4747 42.2646L11.737 46.2983C11.7428 46.4947 11.9004 46.6499 12.0933 46.6499C12.285 46.6499 12.4414 46.4959 12.4496 46.2971L12.7448 42.2646L12.4496 33.8161C12.4414 33.6174 12.285 33.4633 12.0933 33.4633C11.8993 33.4633 11.7428 33.6174 11.737 33.8173ZM14.8487 33.7562L14.6264 42.2658L14.8499 46.236C14.8546 46.4688 15.0404 46.6546 15.272 46.6546C15.5025 46.6546 15.6872 46.4688 15.6942 46.2336V46.236L15.9447 42.2658L15.6942 33.7562C15.6884 33.521 15.5025 33.3363 15.272 33.3363C15.0404 33.3363 14.8546 33.521 14.8487 33.7562ZM13.2869 33.5327L13.0459 42.2646L13.2881 46.2736C13.2928 46.4876 13.4645 46.6582 13.6774 46.6582C13.8891 46.6582 14.0596 46.4877 14.0666 46.2724V46.2736V46.2724V46.2713L14.3395 42.2658L14.0666 33.5327C14.0608 33.3152 13.8891 33.147 13.6774 33.147C13.4633 33.147 13.2917 33.3152 13.2869 33.5327ZM18.011 32.5108L17.8275 42.2646C17.8275 42.2705 18.011 46.1866 18.011 46.1866C18.0157 46.4512 18.2344 46.6699 18.4978 46.6699C18.7624 46.6699 18.98 46.4524 18.9859 46.1854V46.1878V46.1842L19.1905 42.2681L18.9859 32.5108C18.9812 32.2438 18.7624 32.0251 18.4978 32.0251C18.2344 32.0251 18.0157 32.2427 18.011 32.5108ZM19.5915 31.6264L19.3787 42.2681L19.5915 46.1313C19.5951 46.4136 19.8291 46.6452 20.1125 46.6452C20.3959 46.6452 20.6288 46.4136 20.6323 46.1266V46.1313L20.864 42.2681L20.6323 31.6264C20.6288 31.3418 20.3947 31.1078 20.1125 31.1078C19.8291 31.1066 19.5951 31.3407 19.5915 31.6264ZM21.5319 30.5657C21.1756 30.7033 21.0804 30.8456 21.078 31.1207V46.1137C21.0815 46.403 21.305 46.6441 21.5872 46.6723C21.599 46.6723 34.5974 46.6805 34.6821 46.6805C37.2928 46.6805 39.4061 44.5637 39.4061 41.9553C39.4061 39.3457 37.2928 37.2313 34.6821 37.2313C34.0353 37.2313 33.4179 37.3618 32.8557 37.597C32.4794 33.341 28.9102 30 24.5543 30C23.4888 30 22.4504 30.2105 21.5319 30.5657Z" fill="white"/>
</mask>
<g mask="url(#mask0_105_2)">
<path d="M147.941 14.5355H1V61.0208H147.941V14.5355Z" fill="url(#paint0_linear_105_2)"/>
</g>
<defs>
<linearGradient id="paint0_linear_105_2" x1="74.472" y1="-12.3583" x2="74.472" y2="60.9861" gradientUnits="userSpaceOnUse">
<stop stop-color="#F8A01D"/>
<stop offset="0.7128" stop-color="#F26E23"/>
<stop offset="1" stop-color="#EF5826"/>
</linearGradient>
</defs>
</svg>
