<svg width="150" height="75" viewBox="0 0 150 75" fill="none" xmlns="http://www.w3.org/2000/svg">
<path d="M30.5906 46.1823C30.9556 45.5894 30.7655 44.8139 30.1726 44.4488C24.8392 41.1892 18.2271 40.431 10.5186 42.1936C9.83926 42.3481 9.41587 43.0242 9.56924 43.7036C9.72477 44.3818 10.402 44.8085 11.0803 44.6519C18.1234 43.0436 24.1059 43.6992 28.8571 46.6035C29.4511 46.9664 30.2277 46.7796 30.5906 46.1823Z" fill="white"/>
<path d="M35.8732 34.2746C36.4056 33.377 36.1097 32.2149 35.2122 31.6813C27.7036 27.2239 15.8196 26.8038 8.67279 28.9747C7.67265 29.2782 7.10993 30.3356 7.41127 31.3357C7.71369 32.3359 8.77216 32.8997 9.77122 32.5972C16 30.7071 26.7574 31.0635 33.281 34.9367C34.1775 35.4702 35.3418 35.1743 35.8732 34.2746Z" fill="white"/>
<path d="M32.5563 38.5063C26.3092 34.6677 17.1697 33.5877 9.82198 35.818C8.98817 36.0718 8.51726 36.951 8.76676 37.7859C9.01949 38.6175 9.90083 39.0884 10.7346 38.8368C17.1675 36.884 25.4689 37.8528 30.906 41.1946C31.648 41.6504 32.4558 41.4181 33.0834 40.6751C33.7109 39.932 33.2983 38.9621 32.5563 38.5063Z" fill="white"/>
<path d="M21.1594 17C9.86302 16.9989 1 26.0585 1 37.2329C1 48.4094 10.0974 57.469 21.2728 57.469C32.4494 57.469 41.4506 48.4105 41.4506 37.2329C41.4506 26.0596 32.4558 17 21.1594 17ZM11.0803 44.6519C10.402 44.8085 9.72477 44.3829 9.56925 43.7036C9.41588 43.0253 9.83926 42.3481 10.5186 42.1936C18.2271 40.431 24.8381 41.1892 30.1726 44.4488C30.7666 44.8139 30.9567 45.5894 30.5906 46.1834L30.5917 46.1823C30.2288 46.7785 29.4511 46.9654 28.8581 46.6025C24.1059 43.6982 18.1234 43.0436 11.0803 44.6519ZM33.0834 40.6751C32.4558 41.4171 31.6469 41.6493 30.9049 41.1935C25.4678 37.8518 17.1708 36.8829 10.7379 38.8357C9.90407 39.0874 9.01949 38.6175 8.76676 37.7848C8.51618 36.9499 8.98493 36.0707 9.81874 35.8169C17.1675 33.5877 26.3103 34.6666 32.5574 38.5052C33.2983 38.9621 33.7109 39.933 33.0834 40.6751ZM33.281 34.9367C26.7585 31.0635 16 30.7071 9.77122 32.5972C8.77216 32.8997 7.71369 32.3359 7.41127 31.3357C7.10885 30.3356 7.67265 29.2782 8.67279 28.9747C15.8196 26.8038 27.7036 27.2239 35.2122 31.6813C36.1108 32.2149 36.4057 33.377 35.8732 34.2746C35.3418 35.1743 34.1775 35.4702 33.281 34.9367Z" fill="#24CF5F"/>
<path d="M56.2583 35.6797C52.7665 34.8459 52.1433 34.2616 52.1433 33.0325C52.1433 31.8714 53.2374 31.0905 54.8629 31.0905C56.4376 31.0905 57.9994 31.6846 59.6379 32.9051C59.6876 32.9418 59.7502 32.9569 59.8107 32.9472C59.8722 32.9375 59.9241 32.904 59.9619 32.8532L61.6673 30.449C61.7364 30.3496 61.7192 30.2125 61.6241 30.1379C59.6746 28.574 57.4799 27.8125 54.9147 27.8125C51.1421 27.8125 48.5067 30.0774 48.5067 33.3155C48.5067 36.789 50.7803 38.0192 54.7085 38.9686C58.0523 39.7386 58.6151 40.3845 58.6151 41.5369C58.6151 42.8147 57.4734 43.6096 55.6384 43.6096C53.5981 43.6096 51.9359 42.9227 50.076 41.3112C50.0296 41.2712 49.967 41.2529 49.9076 41.2561C49.8471 41.2615 49.7898 41.2896 49.7509 41.3371L47.8392 43.6139C47.7593 43.7079 47.7701 43.8494 47.8608 43.9304C50.0264 45.8637 52.6887 46.8844 55.5617 46.8844C59.6271 46.8844 62.2538 44.6627 62.2538 41.2259C62.2603 38.3237 60.5235 36.7166 56.2691 35.6819L56.2583 35.6797Z" fill="#24CF5F"/>
<path d="M71.4484 32.2333C69.6857 32.2333 68.2406 32.9267 67.0504 34.3502V32.7495C67.0504 32.6232 66.9467 32.5206 66.8203 32.5206H63.6924C63.5661 32.5206 63.4645 32.6232 63.4645 32.7495V50.5339C63.4645 50.6603 63.5661 50.7629 63.6924 50.7629H66.8203C66.9467 50.7629 67.0504 50.6592 67.0504 50.5339V44.9208C68.2417 46.2579 69.6879 46.9114 71.4484 46.9114C74.7221 46.9114 78.0368 44.3905 78.0368 39.5734C78.0422 34.7552 74.7264 32.2333 71.4516 32.2333H71.4484ZM74.3981 39.5734C74.3981 42.0262 72.886 43.7392 70.7215 43.7392C68.583 43.7392 66.9704 41.9484 66.9704 39.5734C66.9704 37.1983 68.583 35.4086 70.7215 35.4086C72.8525 35.4076 74.3981 37.1594 74.3981 39.5734Z" fill="#24CF5F"/>
<path d="M86.5304 32.2333C82.3139 32.2333 79.011 35.4799 79.011 39.6252C79.011 43.7252 82.2912 46.9384 86.4797 46.9384C90.7103 46.9384 94.0239 43.7025 94.0239 39.5734C94.0239 35.4573 90.733 32.2343 86.5315 32.2343L86.5304 32.2333ZM86.5304 43.7619C84.2882 43.7619 82.5968 41.9603 82.5968 39.5712C82.5968 37.1713 84.2299 35.4313 86.4786 35.4313C88.7359 35.4313 90.4381 37.2329 90.4381 39.6241C90.4381 42.023 88.7953 43.7619 86.5304 43.7619Z" fill="#24CF5F"/>
<path d="M103.027 32.5195H99.5841V28.9995C99.5841 28.8732 99.4815 28.7706 99.3562 28.7706H96.2284C96.1009 28.7706 95.9983 28.8732 95.9983 28.9995V32.5195H94.4948C94.3685 32.5195 94.267 32.6221 94.267 32.7484V35.4367C94.267 35.5631 94.3685 35.6657 94.4948 35.6657H95.9983V42.6235C95.9983 45.4349 97.3981 46.8595 100.158 46.8595C101.28 46.8595 102.21 46.6273 103.088 46.1305C103.159 46.0905 103.203 46.0138 103.203 45.9317V43.372C103.203 43.2931 103.163 43.2175 103.095 43.1765C103.027 43.1333 102.941 43.1311 102.872 43.1657C102.27 43.4692 101.687 43.6085 101.036 43.6085C100.031 43.6085 99.5841 43.1527 99.5841 42.1321V35.6679H103.027C103.153 35.6679 103.255 35.5653 103.255 35.4389V32.7506C103.261 32.6232 103.159 32.5206 103.031 32.5206L103.027 32.5195Z" fill="#24CF5F"/>
<path d="M115.02 32.5335V32.1015C115.02 30.8302 115.509 30.2632 116.603 30.2632C117.255 30.2632 117.779 30.3928 118.365 30.5872C118.438 30.6099 118.513 30.5991 118.572 30.5559C118.632 30.5127 118.666 30.4436 118.666 30.3701V27.7348C118.666 27.6333 118.6 27.5447 118.504 27.5144C117.885 27.3308 117.091 27.1407 115.904 27.1407C113.015 27.1407 111.488 28.7673 111.488 31.8444V32.5065H109.984C109.859 32.5065 109.755 32.6102 109.755 32.7366V35.4389C109.755 35.5653 109.859 35.6679 109.984 35.6679H111.488V46.3994C111.488 46.5258 111.589 46.6284 111.715 46.6284H114.843C114.97 46.6284 115.073 46.5258 115.073 46.3994V35.6679H117.994L122.469 46.3962C121.96 47.5237 121.462 47.7473 120.78 47.7473C120.228 47.7473 119.647 47.5832 119.054 47.2591C118.997 47.2278 118.932 47.2224 118.872 47.2419C118.811 47.2624 118.762 47.3067 118.737 47.365L117.676 49.6904C117.626 49.8005 117.668 49.9291 117.775 49.9863C118.881 50.5857 119.881 50.8417 121.116 50.8417C123.425 50.8417 124.701 49.766 125.828 46.8714L131.255 32.8478C131.281 32.7765 131.274 32.6977 131.23 32.635C131.187 32.5724 131.118 32.5357 131.043 32.5357H127.785C127.687 32.5357 127.601 32.5972 127.569 32.689L124.232 42.2174L120.578 32.6815C120.545 32.5929 120.457 32.5346 120.365 32.5346H115.019V32.5335H115.02Z" fill="#24CF5F"/>
<path d="M108.068 32.5195H104.94C104.814 32.5195 104.71 32.6221 104.71 32.7484V46.3972C104.71 46.5236 104.814 46.6262 104.94 46.6262H108.068C108.193 46.6262 108.297 46.5236 108.297 46.3972V32.7506C108.297 32.6242 108.195 32.5206 108.068 32.5195Z" fill="#24CF5F"/>
<path d="M106.52 26.3048C105.28 26.3048 104.276 27.3082 104.276 28.5481C104.276 29.788 105.281 30.7924 106.52 30.7924C107.759 30.7924 108.764 29.788 108.764 28.5481C108.764 27.3082 107.76 26.3048 106.52 26.3048Z" fill="#24CF5F"/>
<path d="M133.927 36.9078C132.688 36.9078 131.726 35.913 131.726 34.7055C131.726 33.498 132.702 32.4925 133.939 32.4925C135.178 32.4925 136.14 33.4872 136.14 34.6936C136.14 35.9012 135.164 36.9078 133.927 36.9078ZM133.939 32.7117C132.81 32.7117 131.958 33.6082 131.958 34.7055C131.958 35.8029 132.804 36.6875 133.927 36.6875C135.054 36.6875 135.909 35.7921 135.909 34.6936C135.91 33.5963 135.06 32.7117 133.939 32.7117ZM134.427 34.9205L135.049 35.7921H134.524L133.963 34.9928H133.481V35.7921H133.042V33.4818H134.072C134.609 33.4818 134.963 33.7562 134.963 34.2184C134.964 34.5975 134.744 34.8287 134.427 34.9205ZM134.056 33.8782H133.481V34.6094H134.056C134.342 34.6094 134.511 34.469 134.511 34.2433C134.51 34.0046 134.34 33.8782 134.056 33.8782Z" fill="#24CF5F"/>
</svg>
