<svg width="150" height="75" viewBox="0 0 150 75" fill="none" xmlns="http://www.w3.org/2000/svg">
<g clip-path="url(#clip0_105_2)">
<g clip-path="url(#clip1_105_2)">
<path fill-rule="evenodd" clip-rule="evenodd" d="M3.43273 23.3197C1.21567 25.57 1.14934 29.1508 1.14736 36.1798C7.3533 36.1798 11.228 33.4755 14.6267 31.1033C17.2819 29.2502 19.6466 27.5998 22.6054 27.5998C27.0094 27.5998 30.8546 30.7603 32.8936 32.4362C33.1811 32.6725 33.4327 32.8793 33.645 33.0436C33.5806 28.0321 33.2342 25.2077 31.3742 23.3197C29.0888 21 25.4104 21 18.0537 21L16.7532 21C9.3965 21 5.71815 21 3.43273 23.3197ZM15.7974 53.9998C16.1089 54 16.4274 54 16.7532 54H18.0537C18.3794 54 18.698 54 19.0095 53.9998H15.7974Z" fill="#0077FF"/>
<path fill-rule="evenodd" clip-rule="evenodd" d="M1.14738 36.1798C7.35333 36.1798 11.228 33.4755 14.6268 31.1033C17.2819 29.2502 19.6466 27.5998 22.6054 27.5998C27.0094 27.5998 30.8547 30.7603 32.8936 32.4362C33.1811 32.6725 33.4327 32.8793 33.645 33.0436C33.6596 34.1897 33.6596 35.4502 33.6596 36.84V38.16C33.6596 45.627 33.6596 49.3606 31.3742 51.6803C29.1899 53.8973 25.7334 53.9954 19.0093 53.9998H15.7976C9.07359 53.9954 5.61701 53.8973 3.43275 51.6803C1.14732 49.3606 1.14732 45.627 1.14732 38.16L1.14732 36.84C1.14732 36.6166 1.14732 36.3966 1.14738 36.1798Z" fill="#F45FFF"/>
<path d="M26.3445 37.8218C26.3445 37.0062 27.004 36.345 27.8076 36.345C28.6111 36.345 29.2706 37.0062 29.2706 37.8218V43.7783C29.2706 44.5938 28.6111 45.255 27.8076 45.255C27.004 45.255 26.3445 44.5938 26.3445 43.7783V37.8218Z" fill="white"/>
<path d="M21.1427 34.0268C21.1427 33.2112 21.8022 32.5501 22.6058 32.5501C23.4093 32.5501 24.0688 33.2112 24.0688 34.0268V47.5733C24.0688 48.3889 23.4093 49.0501 22.6058 49.0501C21.8022 49.0501 21.1427 48.3889 21.1427 47.5733V34.0268Z" fill="white"/>
<path d="M15.9407 37.8218C15.9407 37.0062 16.6003 36.345 17.4038 36.345C18.2073 36.345 18.8669 37.0062 18.8669 37.8218V43.7783C18.8669 44.5938 18.2073 45.255 17.4038 45.255C16.6003 45.255 15.9407 44.5938 15.9407 43.7783V37.8218Z" fill="white"/>
<path d="M10.7381 39.9667C10.7381 39.1511 11.3977 38.49 12.2012 38.49C13.0047 38.49 13.6642 39.1511 13.6642 39.9667V41.6332C13.6642 42.4488 13.0047 43.11 12.2012 43.11C11.3977 43.11 10.7381 42.4488 10.7381 41.6332V39.9667Z" fill="white"/>
<path d="M5.53615 39.9667C5.53615 39.1511 6.1957 38.49 6.9992 38.49C7.80275 38.49 8.46226 39.1511 8.46226 39.9667V41.6332C8.46226 42.4488 7.80275 43.11 6.9992 43.11C6.1957 43.11 5.53615 42.4488 5.53615 41.6332V39.9667Z" fill="white"/>
</g>
<path d="M54.297 45.7901H50.1467L44.2414 28.5608H47.3007L52.0202 42.7597H52.4945L57.3799 28.5608H60.3921L54.297 45.7901ZM68.2937 36.8699L75.9776 45.7901H72.23L65.9691 38.4096H65.2576V45.7901H62.4117V28.5608H65.2576V35.5747H65.9452L71.8742 28.5608H75.3847L68.2937 36.8699ZM85.5214 45.7901H82.7463V28.5608H87.2054L91.7584 41.5866H92.138L96.7865 28.5608H101.15V45.7901H98.375V32.471H97.9961L93.2291 45.7901H90.5726L85.901 32.471H85.5214V45.7901ZM108.971 46.0345C106.339 46.0345 104.347 43.8106 104.347 40.7557V33.0819H107.074V40.438C107.074 42.2465 108.165 43.5173 109.73 43.5173C111.319 43.5173 112.482 42.2465 112.482 40.438V33.0819H115.209V45.7901H113.169L112.623 43.8839C111.841 45.228 110.466 46.0345 108.971 46.0345ZM122.726 46.0345C119.928 46.0345 117.983 44.5682 117.462 42.222L120.095 41.7577C120.497 42.9552 121.541 43.6395 122.94 43.6395C124.031 43.6395 125.075 43.2485 125.075 42.2465C125.075 41.2689 123.865 40.9023 122.466 40.5113C120.497 39.9492 118.126 39.2405 118.126 36.5767C118.126 34.035 120.332 32.8375 122.845 32.8375C125.288 32.8375 127.162 34.2305 127.849 36.4545L125.312 36.8944C124.861 35.8435 124.008 35.2325 122.869 35.2325C121.849 35.2325 120.948 35.6724 120.948 36.5034C120.948 37.5298 122.205 37.9208 123.652 38.3363C125.596 38.8984 127.873 39.656 127.873 42.1732C127.873 44.226 126.261 46.0345 122.726 46.0345ZM131.853 31.2735C130.856 31.2735 130.145 30.5647 130.145 29.5627C130.145 28.5608 130.856 27.8276 131.853 27.8276C132.824 27.8276 133.536 28.5608 133.536 29.5627C133.536 30.5647 132.824 31.2735 131.853 31.2735ZM133.204 45.7901H130.477V33.0819H133.204V45.7901ZM142.118 46.0345C138.348 46.0345 135.692 43.2729 135.692 39.436C135.692 35.5991 138.348 32.8375 142.118 32.8375C144.751 32.8375 147.076 34.2061 147.976 36.8211L145.415 37.261C144.893 36.1612 143.708 35.4036 142.285 35.4036C140.079 35.4036 138.538 37.0654 138.538 39.436C138.538 41.8066 140.079 43.4684 142.285 43.4684C143.755 43.4684 144.964 42.6864 145.51 41.5622L148.071 42.0021C147.146 44.6659 144.704 46.0345 142.118 46.0345Z" fill="black"/>
</g>
<defs>
<clipPath id="clip0_105_2">
<rect width="150" height="75" fill="white"/>
</clipPath>
<clipPath id="clip1_105_2">
<rect width="166.138" height="33" fill="white" transform="translate(1 21)"/>
</clipPath>
</defs>
</svg>
