<svg width="150" height="75" viewBox="0 0 150 75" fill="none" xmlns="http://www.w3.org/2000/svg">
<path d="M18.5306 37.424C18.5306 35.1141 17.3569 34.244 14.9715 34.244C13.4763 34.244 12.3025 34.755 11.6209 35.2095V37.1215C12.2649 36.6481 13.4387 36.043 14.7067 36.043C15.7851 36.043 16.2773 36.4221 16.2773 37.4441V37.9739H15.9181C12.4733 37.9739 10.9392 39.11 10.9392 41.0409C10.9392 42.9717 12.1129 44.0502 13.8542 44.0502C15.1788 44.0502 15.7474 43.6145 16.1831 43.1601H16.2773C16.2961 43.4062 16.3714 43.7276 16.4479 43.9171H18.6437C18.5683 43.1413 18.5306 42.3653 18.5306 41.5883V37.424ZM14.669 42.4019C13.7224 42.4019 13.2492 41.8344 13.2492 40.982C13.2492 39.8647 14.0249 39.4679 15.9558 39.4679H16.2773V41.6448H16.2785C15.9946 42.0616 15.4649 42.4019 14.669 42.4019Z" fill="#FFBC0D"/>
<path d="M9.5746 30.7614L6.77372 37.1214H9.10252L11.9034 30.7614H9.5746Z" fill="#FFBC0D"/>
<path d="M3.3853 30.7614H1L5.31615 40.1508V43.9183H7.60608V41.6848C7.60608 40.0001 7.39772 39.5079 6.75368 38.1069L3.3853 30.7614Z" fill="#FFBC0D"/>
<path d="M55.9145 34.3959H53.6622L52.0269 37.2721L50.2173 34.3959H47.6802L50.5658 38.9663L47.567 43.9171H49.857L51.7726 40.7064L53.7941 43.9171H56.3313L53.2302 39.0086L55.9145 34.3959Z" fill="#FFBC0D"/>
<path d="M43.252 34.2063H43.2508C40.5065 34.2063 39.1997 36.3078 39.1997 39.1852C39.1997 42.4984 40.8279 44.1066 43.7053 44.1066C45.144 44.1066 46.2036 43.7274 46.8664 43.2741V41.4375C46.166 41.9108 44.9922 42.3276 43.8949 42.3276C42.2536 42.3276 41.6167 41.5541 41.5378 39.9611H46.9619V38.7684C46.9619 35.4554 45.5043 34.2063 43.252 34.2063ZM44.6707 38.2952H41.5332C41.5861 36.7894 42.1348 35.9852 43.2132 35.9852C44.3305 35.9852 44.6707 36.913 44.6707 38.1057V38.2952Z" fill="#FFBC0D"/>
<path d="M35.5101 35.5096C34.9343 34.6561 34.1079 34.2063 33.1236 34.2063C30.9467 34.2063 29.4326 36.0429 29.4326 39.2229C29.4326 42.4029 30.909 44.1066 33.0294 44.1066C34.0879 44.1066 34.9673 43.6168 35.5619 42.6844L35.6796 43.9183H37.7624V30.7614H35.5101V35.5096ZM33.5969 42.3277C32.3665 42.3277 31.7602 41.3811 31.7602 39.2229C31.7602 37.0649 32.4043 35.9865 33.6911 35.9865C34.9026 35.9865 35.5089 36.9519 35.5089 39.1476C35.5089 41.3434 34.8649 42.3277 33.5969 42.3277Z" fill="#FFBC0D"/>
<path d="M25.3244 34.244C23.9799 34.244 23.1852 34.7362 22.7307 35.1906H22.6177L22.5612 34.3959H20.3653V43.9171H22.6177V37.0838C23.0345 36.5728 23.6961 36.1372 24.5108 36.1372C25.3255 36.1372 25.6658 36.4775 25.6658 37.1968V43.9171H27.9181V36.9696C27.9181 35.0764 27.161 34.244 25.3244 34.244Z" fill="#FFBC0D"/>
<path d="M80.1016 35.0481L80.0211 34.6479L76.6188 34.0535L78.5959 31.3787L78.3659 31.1272L75.4578 32.5218L75.8256 28.8181L75.5267 28.6467L73.7566 31.6416L71.768 27.1835H71.4231L71.8945 31.493L66.8943 27.4922L66.469 27.6179L70.3196 32.4532L62.6986 29.9155L62.3538 30.3041L69.1587 34.1793L59.7675 34.9566L59.6641 35.5396L69.4231 36.6027L61.2848 43.3356L61.6297 43.8042L71.3196 38.5345L69.4001 47.8165H69.9863L73.6991 39.0832L75.9636 45.9189L76.3659 45.6102L75.4348 38.6603L78.9637 42.6611L79.1936 42.2953L76.4924 37.3343L80.2625 38.7288L80.2971 38.3059L76.9176 35.8139L80.1016 35.0481Z" fill="#FFBC0D"/>
<path d="M111.776 40.5664C111.075 41.2858 110.375 41.7026 109.315 41.7026C108.255 41.7026 107.82 41.1539 107.82 40.132V34.5667H103.22V40.3592C103.22 43.0094 104.772 44.2021 107.422 44.2021C109.088 44.2021 110.526 43.823 111.662 42.9905H111.776L111.851 43.9184H116.375V34.5667H111.776V40.5664Z" fill="#FFBC0D"/>
<path d="M92.6444 38.3424L89.4197 31.0075H83.9862V43.9171H86.0501V34.4218L90.2897 43.9171H92.6374L96.8205 34.4195V43.9171H101.44V31.0075H95.7795L92.6444 38.3424Z" fill="#FFBC0D"/>
<path d="M125.406 37.9151L125.404 37.9163C123.853 37.7268 122.47 37.6513 122.47 36.9509C122.47 36.4399 123.19 36.2692 124.42 36.2692C125.859 36.2692 128.017 36.553 128.887 37.1016V34.9812C127.542 34.5268 126.01 34.2807 123.946 34.2807C119.726 34.2807 117.87 35.6052 117.87 37.5172C117.87 39.4292 119.271 40.1862 121.031 40.5466C123.096 40.9632 124.931 40.9256 124.931 41.5496C124.931 42.0605 124.193 42.2313 122.641 42.2313C120.918 42.2313 119.044 41.8911 117.928 41.3224V43.4239C118.477 43.6512 120.276 44.1998 123.285 44.1998C127.336 44.1998 129.532 43.2155 129.532 41.001C129.532 38.6534 127.336 38.1612 125.406 37.9151Z" fill="#FFBC0D"/>
<path d="M147.875 37.2358V35.1719C147.231 34.7928 145.546 34.2818 143.388 34.2818C139.034 34.2818 136.763 36.3645 136.763 39.222C136.763 41.9287 138.977 44.2009 143.388 44.2009C145.167 44.2009 146.985 43.803 147.875 43.3109V41.2282C146.947 41.8144 145.585 42.1936 144.221 42.1936C142.347 42.1936 141.438 40.9444 141.438 39.2785C141.438 37.6125 142.385 36.2692 144.221 36.2692V36.2704C145.831 36.2704 147.08 36.7813 147.875 37.2358Z" fill="#FFBC0D"/>
<path d="M135.476 34.5667H130.857V43.8995H135.476V34.5667Z" fill="#FFBC0D"/>
<path d="M133.147 30.7992C131.764 30.7992 130.648 31.3667 130.648 32.3132C130.648 33.2598 131.766 33.8273 133.147 33.8273C134.604 33.8273 135.684 33.2598 135.684 32.3132C135.684 31.3667 134.585 30.7992 133.147 30.7992Z" fill="#FFBC0D"/>
</svg>
