<svg width="150" height="75" viewBox="0 0 150 75" fill="none" xmlns="http://www.w3.org/2000/svg">
<path d="M46.9016 27.2259C46.363 25.2107 44.7742 23.6233 42.7574 23.0852C39.1012 22.1064 24.4412 22.1064 24.4412 22.1064C24.4412 22.1064 9.78119 22.1064 6.12501 23.0852C4.10699 23.6233 2.51822 25.2107 1.97961 27.2259C1 30.8789 1 38.5 1 38.5C1 38.5 1 46.121 1.97961 49.7741C2.51822 51.7893 4.10699 53.3767 6.12383 53.9148C9.78002 54.8936 24.44 54.8936 24.44 54.8936C24.44 54.8936 39.1 54.8936 42.7562 53.9148C44.7731 53.3767 46.3618 51.7893 46.9005 49.7741C47.8812 46.121 47.8812 38.5 47.8812 38.5C47.8812 38.5 47.8812 30.8789 46.9016 27.2259Z" fill="#FF0931"/>
<path d="M19.7525 45.5265L31.9323 38.5L19.7525 31.4735V45.5265Z" fill="white"/>
<path d="M69.0481 51.9349C68.1202 51.3098 67.4605 50.3381 67.07 49.0209C66.6784 47.7038 66.4832 45.9507 66.4832 43.7616V40.7807C66.4832 38.5693 66.7066 36.7939 67.1535 35.4544C67.6004 34.1149 68.299 33.1385 69.2492 32.5239C70.1994 31.9106 71.4448 31.6027 72.9877 31.6027C74.5071 31.6027 75.7254 31.9153 76.6415 32.5404C77.5576 33.1655 78.2279 34.1431 78.6525 35.4708C79.077 36.7998 79.2898 38.5693 79.2898 40.7807V43.7616C79.2898 45.9507 79.0829 47.7096 78.6701 49.0374C78.2561 50.3663 77.5858 51.338 76.6591 51.9514C75.7313 52.5647 74.4741 52.8726 72.8877 52.8726C71.2554 52.8726 69.9759 52.56 69.0481 51.9349ZM74.2448 48.719C74.5012 48.0492 74.6305 46.9553 74.6305 45.436V39.0381C74.6305 37.5647 74.5012 36.4872 74.2448 35.8057C73.9873 35.1242 73.5345 34.7835 72.8865 34.7835C72.2609 34.7835 71.8187 35.1242 71.5624 35.8057C71.3048 36.4872 71.1766 37.5647 71.1766 39.0381V45.436C71.1766 46.9553 71.2989 48.0492 71.5459 48.719C71.7917 49.3887 72.2386 49.7236 72.8865 49.7236C73.5345 49.7236 73.9873 49.3887 74.2448 48.719Z" fill="#282828"/>
<path d="M140.256 43.8098V44.8485C140.256 46.1669 140.295 47.155 140.374 47.813C140.451 48.4722 140.614 48.9516 140.859 49.2536C141.105 49.5556 141.485 49.706 141.999 49.706C142.692 49.706 143.167 49.4381 143.424 48.9023C143.681 48.3665 143.82 47.4735 143.843 46.2221L147.833 46.4571C147.855 46.6357 147.867 46.8813 147.867 47.1938C147.867 49.0926 147.347 50.5097 146.308 51.4485C145.268 52.3861 143.798 52.855 141.899 52.855C139.62 52.855 138.02 52.1406 137.104 50.7106C136.188 49.2818 135.73 47.0704 135.73 44.0777V40.4928C135.73 37.4108 136.205 35.1618 137.155 33.7436C138.105 32.3254 139.73 31.6168 142.033 31.6168C143.619 31.6168 144.838 31.9071 145.687 32.4875C146.536 33.068 147.133 33.9727 147.48 35.2006C147.827 36.4285 148 38.1263 148 40.2919V43.8086L140.256 43.8098ZM140.842 35.1677C140.608 35.4579 140.45 35.9326 140.372 36.5918C140.294 37.251 140.255 38.2497 140.255 39.5904V41.0638H143.641V39.5904C143.641 38.2732 143.596 37.2733 143.507 36.5918C143.417 35.9115 143.255 35.4309 143.021 35.1512C142.786 34.8728 142.422 34.733 141.931 34.733C141.44 34.733 141.077 34.8786 140.842 35.1677Z" fill="#282828"/>
<path d="M57.782 43.4256L52.5182 24.4329H57.1117L58.9556 33.0421C59.4249 35.1642 59.7718 36.9725 59.9952 38.4683H60.1293C60.2857 37.3967 60.6326 35.5989 61.1689 33.075L63.0799 24.4329H67.6733L62.3425 43.4256V52.5377H57.7832L57.782 43.4256Z" fill="#282828"/>
<path d="M94.2286 32.0034V52.5377H90.6077L90.2055 50.0256H90.1055C89.1212 51.9244 87.6465 52.8726 85.6802 52.8726C84.3161 52.8726 83.3106 52.4261 82.6626 51.5331C82.0146 50.6401 81.6901 49.2442 81.6901 47.3454V32.0034H86.3164V47.0775C86.3164 47.9928 86.4176 48.6461 86.6187 49.0374C86.8198 49.4287 87.1549 49.6237 87.6242 49.6237C88.0264 49.6237 88.4121 49.5015 88.7813 49.2548C89.1506 49.0092 89.4234 48.6967 89.6034 48.3171V32.0034H94.2286Z" fill="#282828"/>
<path d="M117.96 32.0034V52.5377H114.339L113.937 50.0256H113.837C112.853 51.9244 111.378 52.8726 109.412 52.8726C108.048 52.8726 107.042 52.4261 106.394 51.5331C105.746 50.6401 105.422 49.2442 105.422 47.3454V32.0034H110.048V47.0775C110.048 47.9928 110.149 48.6461 110.35 49.0374C110.551 49.4287 110.887 49.6237 111.356 49.6237C111.758 49.6237 112.144 49.5015 112.513 49.2548C112.882 49.0092 113.155 48.6967 113.335 48.3171V32.0034H117.96Z" fill="#282828"/>
<path d="M106.801 28.1518H102.208V52.5377H97.6813V28.1518H93.0879V24.4329H106.8L106.801 28.1518Z" fill="#282828"/>
<path d="M133.273 35.2864C132.993 33.9915 132.54 33.0539 131.915 32.4722C131.289 31.8918 130.428 31.6016 129.333 31.6016C128.484 31.6016 127.69 31.8413 126.953 32.3218C126.216 32.8024 125.645 33.4334 125.243 34.2148H125.209V23.3954H120.75V52.5377H124.572L125.041 50.5954H125.142C125.5 51.2875 126.036 51.8351 126.751 52.2369C127.466 52.6388 128.26 52.8397 129.131 52.8397C130.695 52.8397 131.846 52.1194 132.584 50.6789C133.321 49.2383 133.69 46.9894 133.69 43.9297V40.6808C133.692 38.3801 133.552 36.5824 133.273 35.2864ZM129.031 43.6618C129.031 45.1587 128.969 46.3302 128.846 47.1785C128.723 48.0281 128.516 48.6308 128.227 48.988C127.936 49.3452 127.545 49.5238 127.053 49.5238C126.673 49.5238 126.32 49.4345 125.997 49.2559C125.672 49.0773 125.41 48.8094 125.209 48.4522V36.7951C125.366 36.2369 125.634 35.7787 126.013 35.4215C126.393 35.0643 126.806 34.8857 127.254 34.8857C127.723 34.8857 128.087 35.0702 128.344 35.4379C128.601 35.8069 128.781 36.4261 128.881 37.2968C128.982 38.1675 129.031 39.4071 129.031 41.0145V43.6618Z" fill="#282828"/>
</svg>
